/* XPM */
static char *zandronumq_xpm[] = {
/* columns rows colors chars-per-pixel */
"24 24 2 1 ",
"  c #830808",
". c None",
/* pixels */
"........       .........",
"......           .......",
"....               .....",
"...                 ....",
"..       .....       ...",
"..     .........     ...",
".     ...........     ..",
".    .............    ..",
"     .............     .",
"    ...............    .",
"    ...............    .",
"    ...............    .",
"    ...............    .",
"    .......     ...    .",
"     ......      .     .",
".    .......          ..",
".     .......         ..",
"..     .......       ...",
"...       ...        ...",
"...                 ....",
"....                 ...",
"......                ..",
"........       ...     .",
"..................     ."
};
