/* XPM */
static char * zdoom_xpm[] = {
/* columns rows colors chars-per-pixel */
"24 24 130 2 ",
"   c None",
".  c #0C0C0C",
"X  c #101010",
"o  c #111111",
"O  c #131313",
"+  c gray8",
"@  c #1D1D11",
"#  c #1B1B1B",
"$  c gray11",
"%  c #1E1E1E",
"&  c gray12",
"*  c #192619",
"=  c #1D291D",
"-  c #1D2A1D",
";  c #2D2D07",
":  c #27270E",
">  c #212115",
",  c #232316",
"<  c #2D2D13",
"1  c #2A2A1D",
"2  c #372A1E",
"3  c #2D3913",
"4  c #2D3A13",
"5  c #27341A",
"6  c #202020",
"7  c #222222",
"8  c #252525",
"9  c gray15",
"0  c #272727",
"q  c #212E21",
"w  c #282828",
"e  c gray16",
"r  c #2C2C2C",
"t  c gray18",
"y  c #302323",
"u  c #3D2323",
"i  c #392D20",
"p  c #273427",
"a  c #233D23",
"s  c #303023",
"d  c #3A3A2E",
"f  c gray19",
"g  c #353535",
"h  c gray21",
"j  c gray22",
"k  c gray23",
"l  c #3C3C3C",
"z  c #3F3F3F",
"x  c #4C3319",
"c  c #4E3427",
"v  c #4F3528",
"b  c #443737",
"n  c #4D3333",
"m  c #593333",
"M  c #334C19",
"N  c #264026",
"B  c #274127",
"V  c #2E542E",
"C  c #335926",
"Z  c #374437",
"A  c #2D602D",
"S  c #337226",
"D  c #336633",
"F  c #337233",
"G  c #337F33",
"H  c #3B7B3B",
"J  c #5D432A",
"K  c #414134",
"L  c #4C4C3F",
"P  c #524639",
"I  c #574A3D",
"U  c #6A442A",
"Y  c #6C462D",
"T  c #724C33",
"R  c #7F4C33",
"E  c gray26",
"W  c #434343",
"Q  c gray27",
"!  c #464646",
"~  c gray28",
"^  c #494949",
"/  c #4B4B4B",
"(  c #4C4C4C",
")  c #4E4E4E",
"_  c #505050",
"`  c #535353",
"'  c gray36",
"]  c #5F5F5F",
"[  c #625555",
"{  c #675A5A",
"}  c #685B5B",
"|  c #466046",
" . c #4C664C",
".. c #556148",
"X. c #576457",
"o. c #61605C",
"O. c #716457",
"+. c #71705D",
"@. c #696861",
"#. c #6E6E61",
"$. c #6C6B65",
"%. c #6E6D64",
"&. c gray42",
"*. c #6C6C6C",
"=. c #6D6D6D",
"-. c #98654C",
";. c #886F55",
":. c #906A50",
">. c #BF7F59",
",. c #827568",
"<. c #837669",
"1. c #807F6C",
"2. c #997F66",
"3. c #338C33",
"4. c #3F8C33",
"5. c #339933",
"6. c #3F9833",
"7. c #3FA533",
"8. c #4F8242",
"9. c #4CB24C",
"0. c #59BF4C",
"q. c #5FAC52",
"w. c #59CB59",
"e. c #8F8E6E",
"r. c #90906E",
"t. c #8C8A7D",
"y. c #B28C66",
"u. c #A68C7F",
"i. c #E59865",
"p. c #FFBFA5",
/* pixels */
"                r.%.]                           ",
"                +.t.,.@.                        ",
"              ] _ *.*.@.,.                      ",
"              [ { e.e.@.                        ",
"              8.j l l s H q.                    ",
"        F 0.w.9.6.V p G 7.3.G       E 6 e       ",
"        3 G A 4.7.5.F 5.S = N X.` _ O           ",
"        -.i.Y * B N a Z r 1 1 ~ J U             ",
"        ;.y.v > + - h z 0 & n x R T             ",
"        ;.p.>.E 8 E e $ & k b m P               ",
"        c u.I r # & y @ o                       ",
"          . . . u x 2 8 $                       ",
"            . @ m i 5 M < <                     ",
"            @ q q + : C 3 @                     ",
"            h > > $ 5 D D d                     ",
"              ; $ > C D D                       ",
"              , $ $  ...|                       ",
"                6 6 K / E                       ",
"                j $ ~ ^ ~                       ",
"                  X E ~ Q                       ",
"                  $ j ' _                       ",
"                  $ l *.E                       ",
"                    O.2.}                       ",
"                    / f w                       "
};
